<svg viewBox="0 0 327.67999 327.67999" xmlns="http://www.w3.org/2000/svg">
    <rect class="logo-background" fill="#433b99" width="100%" height="100%" rx="64"/>
    <path class="logo-symbol" fill="#fff" d="m 172.72127,313.44809 c -0.40377,-0.12932 -12.52794,-0.24828 -26.94262,-0.26438 l -26.2085,-0.0292 v -0.91622 c 0,-0.50391 1.37929,-5.09591 3.06506,-10.20443 5.39798,-16.35775 6.15356,-20.58451 6.6211,-37.03839 0.12621,-4.44148 0.36705,-9.06773 0.53521,-10.28052 0.76952,-5.54988 3.31479,-13.43686 6.00585,-18.61015 2.00338,-3.8513 7.00571,-11.03701 10.47501,-15.04705 1.54832,-1.78964 5.00829,-5.82301 7.1479,-8.33244 2.07858,-2.43785 6.50268,-8.28 8.3391,-11.01198 2.80398,-4.17143 5.89508,-9.5479 10.8895,-18.9406 7.37475,-13.86924 8.90651,-16.1412 11.8378,-17.55829 1.6315,-0.78873 4.82677,-0.88085 6.77012,-0.1952 1.57438,0.55548 3.08626,1.9483 3.81148,3.51134 0.78049,1.68216 0.75818,7.12937 -0.0474,11.6097 -0.77323,4.2996 -3.18333,11.53754 -5.71673,17.16827 -9.87763,21.95396 -11.29701,25.54074 -11.29701,28.54773 0,3.3925 1.36599,5.971 3.6117,6.81763 1.0932,0.41212 2.98272,-0.0242 3.93815,-0.90965 0.72503,-0.67186 0.73613,-0.74584 0.55152,-3.67347 -0.18044,-2.86143 -0.16079,-3.00713 0.46478,-3.44531 0.60056,-0.42064 11.72494,-4.16917 25.78556,-8.68881 l 5.7206,-1.83883 2.02506,-1.94428 c 1.1138,-1.06936 2.71716,-2.80323 3.56304,-3.85304 0.84588,-1.04981 5.81928,-6.26949 11.05202,-11.59928 5.23273,-5.3298 10.00603,-10.43698 10.60732,-11.34932 2.0218,-3.06765 2.24752,-4.03062 2.57095,-10.96828 0.84264,-18.07509 1.65913,-22.93412 4.92758,-29.32442 2.26208,-4.4227 5.44205,-6.93255 8.79145,-6.93881 1.7363,-0.004 3.85824,0.87708 4.5007,1.86719 0.57476,0.88575 0.80793,5.05127 1.15279,20.59437 0.16485,7.4294 0.43212,14.57203 0.59392,15.87248 0.16183,1.30046 0.29422,4.56236 0.29422,7.24871 0,5.42507 -0.42631,8.21631 -1.63492,10.70463 -1.24071,2.55443 -7.36311,11.59908 -12.78329,18.88482 -2.82362,3.79545 -6.17541,8.35441 -7.44842,10.13102 -1.273,1.77659 -3.06164,4.22125 -3.97473,5.43258 -2.70422,3.58745 -5.67434,8.0004 -8.00447,11.89292 -1.13101,1.88936 -1.39828,3.6064 -0.64688,4.15584 0.64545,0.47196 2.99492,0.52046 4.15396,0.0856 2.19222,-0.82226 7.5376,-7.45692 19.4462,-24.13651 5.11023,-7.15758 6.49343,-8.68768 6.10553,-6.75401 -0.65565,3.26845 -6.57948,15.73642 -10.91753,22.97832 -3.36655,5.62008 -7.79454,12.08466 -9.528,13.91027 -0.90016,0.94801 -2.95811,2.65356 -4.57319,3.7901 -1.6151,1.13651 -4.12583,2.94586 -5.5794,4.02074 -1.45358,1.07489 -3.89824,2.86414 -5.43258,3.97612 -1.53434,1.11195 -3.97899,2.89153 -5.43257,3.95456 -1.45357,1.06305 -2.97324,2.15902 -3.37701,2.43548 -0.73862,0.50576 -6.10458,4.38985 -11.01197,7.9709 -6.67691,4.87236 -11.56595,8.56403 -12.8153,9.67675 -0.74956,0.6676 -1.9644,1.71204 -2.69963,2.32101 -1.49698,1.23988 -3.80381,3.92289 -7.12736,8.28968 -2.38747,3.13687 -4.56625,7.1695 -6.18765,11.45246 -0.55029,1.45358 -1.15546,2.95147 -1.34483,3.32864 -0.65627,1.30704 -2.68489,1.8437 -4.62307,1.22297 z M 275.5494,264.18786 c -0.14553,-0.28264 -0.55434,-1.3967 -0.90844,-2.47568 -1.1017,-3.35683 -2.4013,-4.74668 -6.02339,-6.44166 -1.0711,-0.50122 -1.92746,-1.09082 -1.92746,-1.32704 0,-0.24018 0.84192,-0.80282 1.93547,-1.29348 1.06451,-0.4776 2.25012,-1.11589 2.63467,-1.41836 1.45586,-1.14518 2.74393,-3.03734 3.37316,-4.95514 0.35795,-1.09098 0.78704,-2.15541 0.95357,-2.36541 0.46753,-0.58961 0.90827,0.0398 1.96753,2.80967 0.51063,1.33534 1.27517,2.83995 1.69895,3.34359 0.44855,0.53307 1.94195,1.48185 3.57388,2.27057 1.54187,0.74517 2.80337,1.487 2.80337,1.64852 0,0.1615 -0.93044,0.75614 -2.06763,1.32143 -1.13721,0.56528 -2.4039,1.26002 -2.81492,1.54386 -1.2574,0.8684 -2.56033,2.97658 -3.38317,5.47408 -0.77765,2.36034 -1.28971,2.88635 -1.81559,1.86505 z m -171.46943,-44.3378 c -0.77457,-0.26608 -0.42971,-1.74483 3.44227,-14.75979 0.84087,-2.82641 2.12792,-7.18716 2.86011,-9.69053 0.7322,-2.50339 1.78002,-6.07128 2.32851,-7.92863 0.85537,-2.89666 2.43301,-8.32561 6.61342,-22.75808 2.10559,-7.26937 2.59516,-9.56428 2.59075,-12.14449 -0.0132,-7.74379 -3.5519,-13.21183 -13.04483,-20.15729 -1.76599,-1.29206 -7.20165,-5.32245 -12.079262,-8.9564 C 87.113485,116.24487 77.21157,108.90557 69.649199,103.33736 58.56675,95.177301 59.036704,95.555461 59.133532,94.875481 l 0.091,-0.63908 15.416763,-0.21433 c 21.631833,-0.30074 43.683145,-0.753 50.948745,-1.04494 5.17757,-0.20803 6.4964,-0.35528 8.22226,-0.91807 3.6051,-1.17559 5.9637,-2.60895 8.81643,-5.35789 4.08335,-3.934775 5.16449,-6.109231 8.66369,-17.425241 0.99887,-3.230179 2.97356,-9.507004 4.38819,-13.9485 1.41464,-4.441495 3.26636,-10.32189 4.11493,-13.067542 3.19558,-10.33972 8.30042,-25.888396 8.89803,-27.102221 0.46919,-0.953017 0.76776,-1.239754 1.22303,-1.174612 0.74317,0.10634 0.85716,0.436205 5.15424,14.915638 1.79741,6.056585 4.10211,13.654848 5.12154,16.885027 1.01943,3.230179 2.18762,6.996274 2.59598,8.3691 6.21366,20.889223 8.01547,26.044255 10.23437,29.280658 3.5521,5.180993 9.18751,8.583363 15.81782,9.549983 2.36419,0.34467 21.89209,0.71454 51.29016,0.97147 19.38874,0.16944 19.20565,0.15461 18.77232,1.51997 -0.093,0.29289 -2.64764,2.37225 -5.67708,4.620809 -3.02943,2.24854 -10.39736,7.72536 -16.3732,12.17066 -5.97583,4.44533 -14.2348,10.58763 -18.35328,13.64959 -4.11848,3.06198 -8.46538,6.30461 -9.65977,7.20587 -1.19439,0.90124 -2.51582,1.89144 -2.93653,2.20045 -3.00923,2.21019 -5.65825,5.48465 -7.50249,9.27385 -2.11263,4.34062 -2.37902,7.66015 -1.04055,12.96621 2.21573,8.78383 7.85038,27.77447 9.44045,31.81751 0.89683,2.28034 1.00905,3.98755 0.30883,4.69844 -0.52827,0.53637 -3.17025,3.01536 -9.66092,9.06496 -1.57439,1.4674 -2.64099,2.24066 -3.09061,2.24066 -0.82357,0 -13.40753,-7.46403 -14.84081,-8.80266 -0.91083,-0.8507 -0.83904,-1.42717 0.51247,-4.11521 2.24876,-4.47254 3.52526,-10.43756 3.52526,-16.47329 0,-7.16488 -1.44126,-11.34566 -5.15143,-14.94321 -2.55488,-2.47735 -4.81487,-3.62242 -8.35659,-4.23411 -2.19615,-0.37929 -2.79594,-0.37911 -4.99209,0.002 -3.82688,0.6632 -5.94646,1.78332 -8.73461,4.61584 -2.74653,2.79026 -6.30048,8.32208 -9.74812,15.17323 -1.55601,3.09211 -1.68632,3.23874 -3.92468,4.41674 -1.98053,1.04231 -4.24796,2.52616 -11.65629,7.62816 -2.6649,1.83528 -6.97782,4.79832 -9.58424,6.58454 -15.0623,10.32237 -20.58968,14.11768 -24.30106,16.68602 -11.16865,7.72895 -12.04832,8.26438 -13.02572,7.92862 z m 130.60829,-35.45473 c -0.38044,-0.45841 -0.31768,-3.54339 0.25108,-12.34098 0.65153,-10.07805 1.87063,-14.9254 4.90806,-19.51527 0.80852,-1.22175 2.29487,-2.19806 2.95862,-1.94336 0.51114,0.19615 0.49763,0.40712 -0.48052,7.51014 -0.30026,2.18037 -0.62953,4.95539 -0.73173,6.1667 -0.10219,1.21131 -0.30739,3.1274 -0.45598,4.25796 -0.14859,1.13056 -0.41335,3.17879 -0.58837,4.55161 -0.83713,6.56679 -0.98329,7.02413 -3.04937,9.54081 -1.86635,2.27344 -2.21406,2.4926 -2.81179,1.77239 z M 60.593054,172.56824 c -0.146975,-0.28264 -0.633074,-1.76927 -1.080215,-3.30359 -1.807185,-6.20123 -2.985639,-8.42377 -5.961119,-11.24248 -2.043129,-1.93546 -4.501073,-3.20098 -8.39766,-4.32363 -4.230826,-1.21895 -4.145792,-2.17395 0.304788,-3.42295 8.025763,-2.25235 11.339484,-6.02332 13.762849,-15.66194 1.322562,-5.26032 2.004937,-5.08501 3.496622,0.8983 1.068866,4.28735 1.951865,6.49719 3.359303,8.40724 1.878033,2.54868 6.649678,5.41762 11.32002,6.80613 1.581315,0.47013 3.02292,1.00258 3.203567,1.18323 0.582502,0.58251 -0.379831,1.11319 -3.75752,2.07216 -5.674729,1.61111 -8.154367,3.19578 -10.521639,6.72417 -1.728498,2.57629 -2.565919,4.58415 -3.579329,8.58202 -0.943089,3.72047 -1.488436,4.55292 -2.149667,3.28134 z M 91.143788,71.879648 c -0.16118,-0.301482 -0.52147,-1.341011 -0.800647,-2.310066 -0.724559,-2.514988 -1.965121,-4.821321 -3.269288,-6.077945 -1.027615,-0.990149 -1.815862,-1.415541 -5.605135,-3.024906 -1.998846,-0.848942 -1.863263,-1.026581 2.128981,-2.789383 3.487218,-1.539803 5.624193,-4.097125 6.759149,-8.088686 0.87746,-3.085992 1.80646,-3.2218 2.44883,-0.357994 0.49019,2.185336 1.56371,4.360828 2.85981,5.795478 1.08086,1.196368 3.82855,2.788602 6.061162,3.512326 2.08824,0.676913 1.7797,1.308463 -1.21275,2.482513 -1.117582,0.438465 -2.632092,1.194717 -3.365582,1.680562 -1.72631,1.143463 -3.52922,3.991409 -4.2661,6.7389 -0.65622,2.446698 -1.2723,3.311131 -1.73843,2.439201 z"/>
</svg>
